# xmcd CD database file
#
# Track frame offsets:
#	150
#	14974
#	49461
#	74346
#	87848
#	113417
#	148902
#	166193
#	193503
#	214265
#	234194
#	252246
#
# Disc length: 3899 seconds
#
# Revision: 0
# Processed by: cddbd v1.5.1PL0 Copyright (c) Steve Scherf et al.
# Submitted via: CDex 1.51
#
DISCID=ab0f390c
DTITLE=Roberta Bradley and Gypsy - Move Over
DYEAR=1900
DGENRE=Blues
TTITLE0=Move Over
TTITLE1=I Believe
TTITLE2=Funky New Orleans
TTITLE3=Dilema
TTITLE4=Roman In The Garden
TTITLE5=What Kind Of Monster
TTITLE6=Only Yourself To Blame
TTITLE7=U.S. 59 (I Still Cry)
TTITLE8=The Circle
TTITLE9=Detroit Slide
TTITLE10=Love Is All I Need
TTITLE11=U.S. 59 (I Still Cry) - Radio Mix
EXTD=
EXTT0=
EXTT1=
EXTT2=
EXTT3=
EXTT4=
EXTT5=
EXTT6=
EXTT7=
EXTT8=
EXTT9=
EXTT10=
EXTT11=
PLAYORDER=
